<svg xmlns="http://www.w3.org/2000/svg" version="1.1" xmlns:xlink="http://www.w3.org/1999/xlink" width="1000" height="1000"><g clip-path="url(#SvgjsClipPath1003)"><rect width="1000" height="1000" fill="#ffffff"></rect><g transform="matrix(3.5,0,0,3.5,150,150)"><svg xmlns="http://www.w3.org/2000/svg" version="1.1" xmlns:xlink="http://www.w3.org/1999/xlink" width="200" height="200"><svg xmlns="http://www.w3.org/2000/svg" version="1.1" xmlns:xlink="http://www.w3.org/1999/xlink" viewBox="0 0 200 200"><rect width="200" height="200" fill="url('#gradient')"></rect><defs><linearGradient id="gradient" gradientTransform="rotate(45 0.5 0.5)"><stop offset="0%" stop-color="#667eea"></stop><stop offset="100%" stop-color="#764ba2"></stop></linearGradient><clipPath id="SvgjsClipPath1003"><rect width="1000" height="1000" x="0" y="0" rx="350" ry="350"></rect></clipPath></defs><g><g fill="#ffffff" transform="matrix(3.034074074074074,0,0,3.034074074074074,9.374043638308848,121.56147036517108)" stroke="#182a78" stroke-width="0.75"><path d="M10.11-14.22L12.09-5.30L13.72-14.22L17.12-14.22L14.10 0L10.55 0L8.64-8.11L6.78 0L3.23 0L0.21-14.22L3.61-14.22L5.24-5.30L7.20-14.22L10.11-14.22ZM26.94 0L26.11-2.66L21.42-2.66L20.60 0L16.93 0L22.15-14.22L25.37-14.22L30.63 0L26.94 0ZM23.76-10.23L22.24-5.30L25.29-5.30L23.76-10.23ZM38.99-3.78L38.99-3.78Q38.99-4.53 38.46-4.95Q37.93-5.37 36.59-5.82Q35.25-6.27 34.40-6.69L34.40-6.69Q31.64-8.05 31.64-10.42L31.64-10.42Q31.64-11.60 32.33-12.50Q33.02-13.41 34.28-13.91Q35.54-14.41 37.11-14.41L37.11-14.41Q38.64-14.41 39.86-13.87Q41.07-13.32 41.75-12.31Q42.42-11.30 42.42-10L42.42-10L39.00-10Q39.00-10.87 38.47-11.35Q37.94-11.83 37.03-11.83L37.03-11.83Q36.11-11.83 35.58-11.42Q35.05-11.02 35.05-10.39L35.05-10.39Q35.05-9.84 35.63-9.40Q36.22-8.96 37.70-8.48Q39.17-8.01 40.12-7.46L40.12-7.46Q42.42-6.13 42.42-3.80L42.42-3.80Q42.42-1.93 41.02-0.87Q39.61 0.20 37.16 0.20L37.16 0.20Q35.43 0.20 34.03-0.42Q32.63-1.04 31.92-2.12Q31.21-3.20 31.21-4.61L31.21-4.61L34.65-4.61Q34.65-3.47 35.24-2.92Q35.83-2.38 37.16-2.38L37.16-2.38Q38.01-2.38 38.50-2.75Q38.99-3.12 38.99-3.78ZM44.18-14.22L48.68-14.22L51.86-4.33L55.02-14.22L59.53-14.22L59.53 0L56.09 0L56.09-3.32L56.43-10.12L52.99 0L50.72 0L47.28-10.13L47.61-3.32L47.61 0L44.18 0L44.18-14.22Z"></path></g></g></svg></svg></g></g></svg>